{"title":"Silent Hill Revelations 2012 WEBRip x264 AC3-JDocsis3","uid":8046173,"size":1284246049,"categoryP":"video","categoryS":"movies","magnet":"?xt=urn:btih:17de674c7eb94b8ab00a8de69295ba1a4a9cff62&amp;dn=Silent+Hill+Revelations+2012+WEBRip+x264+AC3-JDocsis3&amp;tr=udp%3A%2F%2Ftracker.openbittorrent.com%3A80&amp;tr=udp%3A%2F%2Fopen.demonii.com%3A1337&amp;tr=udp%3A%2F%2Ftracker.coppersurfer.tk%3A6969&amp;tr=udp%3A%2F%2Fexodus.desync.com%3A6969","seeders":1,"leechers":0,"uploader":"HeroMaster","files":-1,"time":1358750692,"description":"Silent Hill Revelations 2012 WEBRip x264 AC3-JDocsis3\n\n\nGeneral\nFormat : Matroska\nFormat version : Version 2\nFile size : 1.20 GiB\nDuration : 1h 29mn\nOverall bit rate : 1 913 Kbps\nEncoded date : UTC 2013-01-20 22:49:38\nWriting library : libebml v1.2.3 + libmatroska v1.3.0\n\n\nVideo\nID : 1\nFormat : AVC\nFormat/Info : Advanced Video Codec\nFormat profile : &lt;a class=&quot;__cf_email__&quot; href=&quot;/cdn-cgi/l/email-protection&quot; data-cfemail=&quot;0941606e6149453d2738&quot;&gt;[email&amp;#160;protected]&lt;/a&gt;&lt;script cf-hash='f9e31' type=&quot;text/javascript&quot;&gt;\n/* &lt;![CDATA[ */!function(){try{var t=&quot;currentScript&quot;in document?document.currentScript:function(){for(var t=document.getElementsByTagName(&quot;script&quot;),e=t.length;e--;)if(t[e].getAttribute(&quot;cf-hash&quot;))return t[e]}();if(t&amp;&amp;t.previousSibling){var e,r,n,i,c=t.previousSibling,a=c.getAttribute(&quot;data-cfemail&quot;);if(a){for(e=&quot;&quot;,r=parseInt(a.substr(0,2),16),n=2;a.length-n;n+=2)i=parseInt(a.substr(n,2),16)^r,e+=String.fromCharCode(i);e=document.createTextNode(e),c.parentNode.replaceChild(e,c)}}}catch(u){}}();/* ]]&gt; */&lt;/script&gt;\nFormat settings, CABAC : Yes\nFormat settings, ReFrames : 5 frames\nCodec ID : V_MPEG4/ISO/AVC\nDuration : 1h 29mn\nBit rate : 1 720 Kbps\nWidth : 720 pixels\nHeight : 296 pixels\nDisplay aspect ratio : 2.40:1\nFrame rate mode : Constant\nFrame rate : 23.976 fps\nColor space : YUV\nChroma subsampling : 4:2:0\nBit depth : 8 bits\nScan type : Progressive\nBits/(Pixel*Frame) : 0.337\nStream size : 1.05 GiB (88%)\nDefault : Yes\nForced : No\n\n\nAudio\nID : 2\nFormat : AC-3\nFormat/Info : Audio Coding 3\nMode extension : CM (complete main)\nFormat settings, Endianness : Big\nCodec ID : A_AC3\nDuration : 1h 29mn\nBit rate mode : Constant\nBit rate : 192 Kbps\nChannel(s) : 2 channels\nChannel positions : Front: L R\nSampling rate : 44.1 KHz\nBit depth : 16 bits\nCompression mode : Lossy\nStream size : 123 MiB (10%)\nDefault : Yes\nForced : No\n\n\nIMDb: http://www.imdb.com/title/tt0938330/\n\n\nPoster:\n\n &lt;a href=&quot;\nhttp://i.imgur.com/RDxCKgn.jpg&quot; rel=&quot;nofollow&quot; target=&quot;_NEW&quot;&gt;\nhttp://i.imgur.com/RDxCKgn.jpg&lt;/a&gt;\n\n\nScreenshots:\n\n &lt;a href=&quot;\nhttp://i.imgur.com/WHczoSN.jpg&quot; rel=&quot;nofollow&quot; target=&quot;_NEW&quot;&gt;\nhttp://i.imgur.com/WHczoSN.jpg&lt;/a&gt;\n\n &lt;a href=&quot;\nhttp://i.imgur.com/ujIRMZP.jpg&quot; rel=&quot;nofollow&quot; target=&quot;_NEW&quot;&gt;\nhttp://i.imgur.com/ujIRMZP.jpg&lt;/a&gt;\n\n &lt;a href=&quot;\nhttp://i.imgur.com/zSNGf1P.jpg&quot; rel=&quot;nofollow&quot; target=&quot;_NEW&quot;&gt;\nhttp://i.imgur.com/zSNGf1P.jpg&lt;/a&gt;\n\n\nSEED AND ENJOY!","torrent":{"xt":"urn:btih:17de674c7eb94b8ab00a8de69295ba1a4a9cff62","amp;dn":"Silent+Hill+Revelations+2012+WEBRip+x264+AC3-JDocsis3","amp;tr":["udp%3A%2F%2Ftracker.openbittorrent.com%3A80","udp%3A%2F%2Fopen.demonii.com%3A1337","udp%3A%2F%2Ftracker.coppersurfer.tk%3A6969","udp%3A%2F%2Fexodus.desync.com%3A6969"],"infoHash":"17de674c7eb94b8ab00a8de69295ba1a4a9cff62","infoHashBuffer":{"type":"Buffer","data":[23,222,103,76,126,185,75,138,176,10,141,230,146,149,186,26,74,156,255,98]},"announce":[],"urlList":[]}}